# xmcd CD database file
#
# Track frame offsets:
#	150
#	11506
#	22544
#	35241
#	46216
#	56882
#	66567
#	77835
#	87814
#	99883
#	111174
#	123249
#	133820
#	148132
#	158667
#	170493
#	180719
#	192311
#	202592
#	212366
#	222972
#	234998
#	247537
#	259976
#	269539
#	280676
#
# Disc length: 3913 seconds
#
# Revision: 0
# Processed by: cddbd v1.5.2PL0 Copyright (c) Steve Scherf et al.
# Submitted via: CDex 1.77
#
DISCID=670f471a
DTITLE=Jean Shepard - Four By Four - Honky Tonk Angels
DYEAR=2016
DGENRE=Country
TTITLE0=A Dear John Letter
TTITLE1=A Satisfied Mind
TTITLE2=Beautiful Lies
TTITLE3=Crying Steel Guitar
TTITLE4=Did I Turn Down A Better Deal
TTITLE5=Got You On My Mind
TTITLE6=I Don't Apologize For Loving You
TTITLE7=Hello Old Broken Heart
TTITLE8=I'll Never Be Free
TTITLE9=You Can't Feel The Way I Do
TTITLE10=The Mysteries Of Life
TTITLE11=The Other Woman
TTITLE12=Waltz Of The Angels
TTITLE13=You're Calling Me Sweetheart Again
TTITLE14=Sad Singin' And Slow Ridin'
TTITLE15=Sweet Temptation
TTITLE16=I Love You Because
TTITLE17=Act Like A Married Man
TTITLE18=A Thief In The Night
TTITLE19=I Learned It All From You
TTITLE20=Mockin' Bird Hill
TTITLE21=Blues Stay Away From Me
TTITLE22=My Wedding Ring
TTITLE23=One White Rose
TTITLE24=Shadows On The Wall
TTITLE25=You Win Again
EXTD=YEAR: 2016
EXTT0=
EXTT1=
EXTT2=
EXTT3=
EXTT4=
EXTT5=
EXTT6=
EXTT7=
EXTT8=
EXTT9=
EXTT10=
EXTT11=
EXTT12=
EXTT13=
EXTT14=
EXTT15=
EXTT16=
EXTT17=
EXTT18=
EXTT19=
EXTT20=
EXTT21=
EXTT22=
EXTT23=
EXTT24=
EXTT25=
PLAYORDER=
